<?xml version="1.0" encoding="utf-8"?>
<!-- Generator: Adobe Illustrator 19.0.0, SVG Export Plug-In . SVG Version: 6.00 Build 0)  -->
<svg version="1.1" id="Layer_1" xmlns="http://www.w3.org/2000/svg" xmlns:xlink="http://www.w3.org/1999/xlink" x="0px" y="0px"
	 viewBox="-31 32.8 496.2 496.2" style="enable-background:new -31 32.8 496.2 496.2;" xml:space="preserve">
<style type="text/css">
	.st0{fill:#161412;}
	.st1{fill:#FF0000;}
	.st2{fill:#541313;}
	.st3{fill:#A3D5E0;}
	.st4{fill:#E5AA17;}
	.st5{fill:#C69017;}
</style>
<path class="st0" d="M2,278.8c0,134.4,86.2,243.3,192.5,243.3h46c0,0-7-25.5-10.6-24.5C149.3,477,88.6,386.9,88.6,278.8
	S149.3,80.7,229.9,60c3.6,0.8,10.6-24.5,10.6-24.5h-46C88.2,35.5,2.1,144.4,2,278.8z"/>
<path class="st1" d="M2,278.8c0,134.4,86.2,243.3,192.5,243.3c10.9,0,53.5,0,64.4,0c106.3,0,192.5-108.9,192.5-243.3
	S365.2,35.5,258.9,35.5c-10.9,0-53.5,0-64.4,0C88.2,35.5,2.1,144.4,2,278.8z M17.9,278.8C17.9,155.5,97,55.5,194.5,55.5
	s176.6,100,176.6,223.3S292,502.1,194.5,502.1S17.9,402.2,17.9,278.8z"/>
<path class="st2" d="M7.3,278.8c0,134.4,86.2,243.3,192.5,243.3c112.6,0,195-108.9,195-243.3s-92.4-243.3-195-243.3
	C97.3,35.5,7.4,144.4,7.3,278.8z M23.2,278.8c0-123.3,79.1-223.3,176.6-223.3s176.6,100,176.6,223.3s-79.1,223.3-176.6,223.3
	S23.2,402.2,23.2,278.8z"/>
<ellipse class="st3" cx="412" cy="278.8" rx="17.4" ry="39.4"/>
<path class="st4" d="M394.6,278.8c0,9.3,1.5,17.9,3.8,24.7c9.6,1,17.2,1.2,19.9,1.2c2,0,4.5-0.2,7-0.7c7.9-1.7,16.7-7.3,16.7-25.2
	c0-17.9-8.8-23.5-16.7-25.2c-2.5-0.5-5-0.7-7-0.7c-2.6,0-10.4,0.2-19.9,1.2C396.1,261,394.6,269.6,394.6,278.8z"/>
<ellipse transform="matrix(-0.5778 -0.8162 0.8162 -0.5778 485.192 480.2447)" class="st3" cx="366.8" cy="114.6" rx="39.4" ry="17.4"/>
<path class="st4" d="M352.9,124.6c5.5,7.6,11.6,13.7,17.4,17.9c8.3-4.6,14.7-8.9,16.9-10.4c1.7-1.2,3.5-2.8,5.3-4.6
	c5.5-6,9.3-15.6-1-30.1c-10.4-14.6-20.7-14.1-28.1-10.9c-2.3,1-4.5,2.3-6.1,3.5c-2.2,1.5-8.3,6.1-15.6,12.4
	C343.5,109.2,347.3,116.9,352.9,124.6z"/>
<ellipse transform="matrix(0.5778 -0.8162 0.8162 0.5778 -210.1949 488.3368)" class="st3" cx="366.9" cy="447.3" rx="39.4" ry="17.4"/>
<path class="st4" d="M352.9,437.4c5.5-7.6,11.6-13.7,17.4-17.9c8.3,4.6,14.7,8.9,16.9,10.4c1.7,1.2,3.5,2.8,5.3,4.6
	c5.5,6,9.3,15.6-1,30.1c-10.4,14.6-20.7,14.1-28.1,10.9c-2.3-1-4.5-2.3-6.1-3.5c-2.2-1.5-8.3-6.1-15.6-12.4
	C343.5,452.8,347.3,445,352.9,437.4z"/>
<ellipse class="st3" cx="54" cy="278.8" rx="17.4" ry="39.4"/>
<path class="st5" d="M36.7,278.8c0,9.3,1.5,17.9,3.8,24.7c9.6,1,17.2,1.2,19.9,1.2c2,0,4.5-0.2,7-0.7c7.9-1.7,16.7-7.3,16.7-25.2
	c0-17.9-8.8-23.5-16.7-25.2c-2.5-0.5-5-0.7-7-0.7c-2.6,0-10.4,0.2-19.9,1.2C38.1,261,36.7,269.6,36.7,278.8z"/>
<ellipse transform="matrix(-0.5778 -0.8162 0.8162 -0.5778 -180.5021 799.4057)" class="st3" cx="116.5" cy="446.4" rx="39.4" ry="17.4"/>
<path class="st5" d="M102.5,456.4c5.5,7.6,11.6,13.7,17.4,17.9c8.3-4.6,14.7-8.9,16.9-10.4c1.7-1.2,3.5-2.8,5.3-4.6
	c5.5-6,9.3-15.6-1-30.1c-10.3-14.6-20.7-14.1-28.1-10.9c-2.3,1-4.5,2.3-6.1,3.5c-2.2,1.5-8.3,6.1-15.6,12.4
	C93.2,440.9,97,448.8,102.5,456.4z"/>
<ellipse transform="matrix(0.5778 -0.8162 0.8162 0.5778 -46.0747 142.2756)" class="st3" cx="114.5" cy="115.7" rx="39.4" ry="17.4"/>
<path class="st5" d="M100.5,105.5c5.5-7.6,11.6-13.7,17.4-17.9c8.3,4.6,14.7,8.9,16.9,10.4c1.7,1.2,3.5,2.8,5.3,4.6
	c5.5,6,9.3,15.6-1,30.1c-10.3,14.6-20.7,14.1-28.1,10.9c-2.3-1-4.5-2.3-6.1-3.5c-2.2-1.5-8.3-6.1-15.6-12.4
	C91.2,121.1,95,113.1,100.5,105.5z"/>
<ellipse transform="matrix(0.5778 -0.8162 0.8162 0.5778 -322.5201 278.3411)" class="st3" cx="107.8" cy="450.9" rx="39.4" ry="17.4"/>
<path class="st4" d="M93.9,440.9c5.5-7.6,11.6-13.7,17.4-17.9c8.3,4.6,14.7,8.9,16.9,10.4c1.7,1.2,3.5,2.8,5.3,4.6
	c5.5,6,9.3,15.6-1,30.1c-10.4,14.6-20.7,14.1-28.1,10.9c-2.3-1-4.5-2.3-6.1-3.5c-2.2-1.5-8.3-6.1-15.6-12.4
	C84.5,456.3,88.3,448.5,93.9,440.9z"/>
</svg>
